<svg width="18" height="16" viewBox="0 0 18 16" fill="none" xmlns="http://www.w3.org/2000/svg">
<path d="M14.71 7.24997H0.770508C0.571595 7.24997 0.38083 7.32899 0.240178 7.46964C0.0995256 7.61029 0.0205078 7.80106 0.0205078 7.99997C0.0205078 8.19888 0.0995256 8.38965 0.240178 8.5303C0.38083 8.67095 0.571595 8.74997 0.770508 8.74997H14.71L9.23951 14.219C9.09868 14.3598 9.01956 14.5508 9.01956 14.75C9.01956 14.9491 9.09868 15.1401 9.23951 15.281C9.38034 15.4218 9.57134 15.5009 9.77051 15.5009C9.96967 15.5009 10.1607 15.4218 10.3015 15.281L17.0515 8.53097C17.1214 8.4613 17.1768 8.37854 17.2146 8.28742C17.2524 8.1963 17.2718 8.09862 17.2718 7.99997C17.2718 7.90132 17.2524 7.80364 17.2146 7.71252C17.1768 7.6214 17.1214 7.53864 17.0515 7.46897L10.3015 0.718971C10.1607 0.578141 9.96967 0.499023 9.77051 0.499023C9.57134 0.499023 9.38034 0.578141 9.23951 0.718971C9.09868 0.859801 9.01956 1.05081 9.01956 1.24997C9.01956 1.44913 9.09868 1.64014 9.23951 1.78097L14.71 7.24997Z" fill="#33312B"/>
</svg>
