<svg width="14" height="13" viewBox="0 0 14 13" fill="none" xmlns="http://www.w3.org/2000/svg">
<path d="M5.47831 1.99578C5.95727 0.521683 8.04273 0.521684 8.52169 1.99578L8.88592 3.11676C9.10012 3.77599 9.71445 4.22233 10.4076 4.22233H11.5863C13.1362 4.22233 13.7807 6.20571 12.5267 7.11676L11.5732 7.80956C11.0124 8.21699 10.7777 8.93918 10.9919 9.59841L11.3562 10.7194C11.8351 12.1935 10.148 13.4193 8.89402 12.5082L7.94046 11.8154C7.37968 11.408 6.62032 11.408 6.05954 11.8154L5.10598 12.5082C3.85204 13.4193 2.16487 12.1935 2.64384 10.7194L3.00806 9.59841C3.22226 8.93918 2.98761 8.21699 2.42683 7.80956L1.47327 7.11676C0.21933 6.20571 0.86377 4.22233 2.41373 4.22233H3.59239C4.28555 4.22233 4.89988 3.77599 5.11408 3.11676L5.47831 1.99578Z" fill="#FFB525"/>
</svg>
